<svg id="visual" viewBox="0 0 960 540" width="960" height="540" xmlns="http://www.w3.org/2000/svg" xmlns:xlink="http://www.w3.org/1999/xlink" version="1.1"><rect x="0" y="0" width="960" height="540" fill="#181818"></rect><defs><linearGradient id="grad1_0" x1="43.8%" y1="0%" x2="100%" y2="100%"><stop offset="14.444444444444446%" stop-color="#181818" stop-opacity="1"></stop><stop offset="85.55555555555554%" stop-color="#181818" stop-opacity="1"></stop></linearGradient></defs><defs><linearGradient id="grad2_0" x1="0%" y1="0%" x2="56.3%" y2="100%"><stop offset="14.444444444444446%" stop-color="#181818" stop-opacity="1"></stop><stop offset="85.55555555555554%" stop-color="#181818" stop-opacity="1"></stop></linearGradient></defs><g transform="translate(960, 0)"><path d="M0 405C-67.3 389 -134.6 373 -197 341.2C-259.4 309.5 -316.9 262 -350.7 202.5C-384.6 143 -394.8 71.5 -405 0L0 0Z" fill="#4624c7"></path></g><g transform="translate(0, 540)"><path d="M0 -405C76.5 -397.7 152.9 -390.3 202.5 -350.7C252.1 -311.2 274.7 -239.3 304 -175.5C333.2 -111.7 369.1 -55.8 405 0L0 0Z" fill="#4624c7"></path></g></svg>